<?xml version="1.0" encoding="UTF-8"?>
<svg width="8px" height="7px" viewBox="0 0 8 7" version="1.1" xmlns="http://www.w3.org/2000/svg" xmlns:xlink="http://www.w3.org/1999/xlink">
    <!-- Generator: Sketch 50 (54983) - http://www.bohemiancoding.com/sketch -->
    <title>blue0checkmark</title>
    <desc>Created with Sketch.</desc>
    <defs></defs>
    <g id="SIGN-UP" stroke="none" stroke-width="1" fill="none" fill-rule="evenodd">
        <g id="Sign-Up-3-Expand" transform="translate(-345.000000, -1373.000000)" fill="#2574F6">
            <g id="Invoices" transform="translate(288.000000, 237.000000)">
                <g id="Row-Child-protection-Copy" transform="translate(57.000000, 1123.000000)">
                    <g id="blue0checkmark" transform="translate(0.000000, 13.000000)">
                        <path d="M3.33829488,6.20284409 C3.20157508,6.33956627 3.02145015,6.40601426 2.84213295,6.40350599 C2.66277324,6.40605678 2.48269082,6.33956627 2.34597102,6.20284409 L0.201476774,4.05831254 C-0.0671589245,3.78967217 -0.0671589245,3.35387023 0.201476774,3.08522986 L0.769187031,2.51750973 C1.03782273,2.24886936 1.47361709,2.24886936 1.74225278,2.51750973 L2.84213295,3.61740903 L6.25774722,0.201480278 C6.52638291,-0.0671600927 6.96217727,-0.0671600927 7.23081297,0.201480278 L7.79852323,0.769200409 C8.06715892,1.03784078 8.06715892,1.47364272 7.79852323,1.74228309 L3.33829488,6.20284409 Z"></path>
                    </g>
                </g>
            </g>
        </g>
    </g>
</svg>