<?xml version="1.0" encoding="UTF-8"?>
<svg width="214px" height="306px" viewBox="0 0 214 306" version="1.1" xmlns="http://www.w3.org/2000/svg" xmlns:xlink="http://www.w3.org/1999/xlink">
    <!-- Generator: Sketch 50 (54983) - http://www.bohemiancoding.com/sketch -->
    <title>Group 4</title>
    <desc>Created with Sketch.</desc>
    <defs></defs>
    <g id="SIGN-UP" stroke="none" stroke-width="1" fill="none" fill-rule="evenodd">
        <g id="Elocum-Post-Shift---Sign-Up-1-B---version-2" transform="translate(-1226.000000, -1234.000000)">
            <g id="Group-4" transform="translate(1333.000000, 1387.000000) scale(-1, 1) translate(-1333.000000, -1387.000000) translate(1226.000000, 1234.000000)">
                <path d="M0,0.874270631 C47.2547966,-2.56377926 80.9179714,4.13821211 100.989524,20.9802447 C173.685945,81.9797845 102.654838,164.881172 168.579223,190.816436 C212.528812,208.106612 224.024946,246.198116 203.067622,305.090947 L0.131460653,305.090947 L0,0.874270631 Z" id="Path-25" fill="#E8EDF4"></path>
                <g id="Group-3" transform="translate(129.000000, 193.000000)">
                    <path d="M15.6391965,3.1051942 L20.2974452,17.3674865 L19.2941895,19.9620809 L21.1448732,19.9620809 L25.875,34.4444444 L2.25,34.4444444 L3.91588171,29.8076469 L6.90490723,29.2521159 L5.00377112,26.779627 L10.2055873,12.3009467 L11.8248596,12.3009467 L10.9422785,10.2504482 L13.5205067,3.07423489 C13.7296506,2.49210606 14.3711039,2.189742 14.9532327,2.39888587 C15.2786616,2.51580406 15.5318368,2.77648809 15.6391965,3.1051942 Z" id="Rectangle-5" fill="#AAC3E6"></path>
                    <path d="M13.954834,17.3567708 L13.954834,45.6233724" id="Path-3" stroke="#8FA0BC" stroke-width="1.68" stroke-linecap="round" stroke-linejoin="round"></path>
                    <ellipse id="Oval" fill="#E8EDF4" style="mix-blend-mode: multiply;" cx="13.5" cy="46.6666667" rx="13.5" ry="3.33333333"></ellipse>
                    <path d="M9.15994419,22.9234731 L13.7444458,26.7149523" id="Path-4" stroke="#8FA0BC" stroke-width="1.68" stroke-linecap="round" stroke-linejoin="round"></path>
                    <path d="M14.7849442,27.3679176 L19.3694458,31.1593967" id="Path-4" stroke="#8FA0BC" stroke-width="1.68" stroke-linecap="round" stroke-linejoin="round" transform="translate(17.077195, 29.263657) scale(-1, 1) translate(-17.077195, -29.263657) "></path>
                </g>
                <rect id="Rectangle-2" stroke="#AAC3E6" stroke-width="0.5" x="26" y="72" width="32" height="7" rx="3.5"></rect>
                <rect id="Rectangle-2-Copy-2" stroke="#AAC3E6" stroke-width="0.5" x="16" y="201" width="32" height="7" rx="3.5"></rect>
                <path d="M78.5,24 L83.5,24 C85.4329966,24 87,25.5670034 87,27.5 L87,27.5 C87,29.4329966 85.4329966,31 83.5,31 L78.5,31 C76.5670034,31 75,29.4329966 75,27.5 L75,27.5 C75,25.5670034 76.5670034,24 78.5,24 Z" id="Rectangle-2-Copy" stroke="#AAC3E6" stroke-width="0.5"></path>
                <path d="M163.5,282 L168.5,282 C170.432997,282 172,283.567003 172,285.5 L172,285.5 C172,287.432997 170.432997,289 168.5,289 L163.5,289 C161.567003,289 160,287.432997 160,285.5 L160,285.5 C160,283.567003 161.567003,282 163.5,282 Z" id="Rectangle-2-Copy" stroke="#AAC3E6" stroke-width="0.5"></path>
                <g id="Group-9-Copy-3" transform="translate(79.500000, 103.000000) scale(-1, 1) translate(-79.500000, -103.000000) translate(66.000000, 75.000000)">
                    <ellipse id="Oval" fill="#E8EDF4" style="mix-blend-mode: multiply;" cx="14.5" cy="53.5" rx="11.5" ry="2.5"></ellipse>
                    <g id="Group-8">
                        <path d="M13.5,37.8830769 C20.9558441,37.8830769 27,36.4003506 27,25.9392278 C27,15.4781049 20.25,0 13.5,0 C6.75,0 0,15.4781049 0,25.9392278 C0,36.4003506 6.04415588,37.8830769 13.5,37.8830769 Z" id="Oval-15" fill="#AAC3E6"></path>
                        <path d="M13.8898577,16.8191827 L13.8898577,53.8144165" id="Path-3" stroke="#8FA0BC" stroke-width="1.5" stroke-linecap="round" stroke-linejoin="round"></path>
                        <path d="M6.75,19.1907692 L13.709525,25.215631" id="Path-4" stroke="#8FA0BC" stroke-width="1.5" stroke-linecap="round" stroke-linejoin="round"></path>
                        <path d="M6.75,27.0830769 L13.5766393,32.6271927" id="Path-4-Copy" stroke="#8FA0BC" stroke-width="1.5" stroke-linecap="round" stroke-linejoin="round"></path>
                        <path d="M14.4642857,25.1723077 L19.765225,29.4773574" id="Path-4" stroke="#8FA0BC" stroke-width="1.5" stroke-linecap="round" stroke-linejoin="round" transform="translate(17.114755, 27.324833) scale(-1, 1) translate(-17.114755, -27.324833) "></path>
                    </g>
                </g>
                <path d="M1.12451596,276.467654 C3.67190316,272.155885 6.46310546,270 9.49812287,270 C12.5331403,270 13.3419248,275.851562 11.9244764,287.554688 C13.2291931,280.163332 15.6721505,276.467654 19.2533487,276.467654 C22.8345469,276.467654 23.9946349,280.06065 22.7336127,287.246642 C24.9768864,283.361767 27.8541668,281.419329 31.3654539,281.419329 C34.8767409,281.419329 34.8767409,285.225773 31.3654539,292.838659 C35.1555116,289.851705 38.1398434,289.104967 40.3184494,290.598444 C42.4970553,292.091921 41.8691659,294.651979 38.4347811,298.27862 C45.7361259,295.378181 49.3867982,295.378181 49.3867982,298.27862 C49.3867982,301.179058 47.4533183,303.455977 43.5863583,305.109375 L0,305.109375 L1.12451596,276.467654 Z" id="Path-23" fill="#FFFFFF"></path>
                <g id="Group-9" transform="translate(9.000000, 6.000000)">
                    <ellipse id="Oval" fill="#E8EDF4" style="mix-blend-mode: multiply;" cx="15" cy="47" rx="12" ry="3"></ellipse>
                    <g id="Group-8">
                        <ellipse id="Oval-15" fill="#FFFFFF" cx="14" cy="19" rx="14" ry="19"></ellipse>
                        <path d="M14.4042969,10.6210938 L14.4042969,47.7305104" id="Path-3" stroke="#BBC8DC" stroke-linecap="round" stroke-linejoin="round"></path>
                        <path d="M7,13 L14.2172852,19.043457" id="Path-4" stroke="#BBC8DC" stroke-linecap="round" stroke-linejoin="round"></path>
                        <path d="M7,23 L14.0794778,28.5612272" id="Path-4-Copy" stroke="#BBC8DC" stroke-linecap="round" stroke-linejoin="round"></path>
                        <path d="M15,19 L20.4972704,23.3183369" id="Path-4" stroke="#BBC8DC" stroke-linecap="round" stroke-linejoin="round" transform="translate(17.748635, 21.159168) scale(-1, 1) translate(-17.748635, -21.159168) "></path>
                    </g>
                </g>
                <path d="M57.4636056,170.95251 C58.0952128,168.317503 59.5424668,167 61.8053676,167 C65.5204328,167 67.1448759,169.764347 66.6786966,175.293041 C69.0630757,170.574573 71.9563404,168.806445 75.3584909,169.988656 C78.7606414,171.170867 79.4818621,174.449688 77.5221532,179.825117 C78.8751905,177.23 81.2068849,175.932441 84.5172364,175.932441 C87.8275879,175.932441 87.8275879,178.909921 84.5172364,184.864882 L51.7581675,184.864882 L32.1403238,184.864882 C29,180.44496 28.2149191,177.254347 29.7850809,175.293041 C31.3552428,173.331736 33.9727115,174.118413 37.6374869,177.653073 C36.9557796,170.551024 38.4724586,167 42.1875239,167 C45.9025892,167 47.5270322,169.764347 47.060853,175.293041 C49.445232,170.574573 52.3384967,168.806445 55.7406472,169.988656 C56.4227233,170.22567 56.9970428,170.546955 57.4636056,170.95251 Z" id="Combined-Shape" fill="#AAC3E6"></path>
                <path d="M79.1403238,238.864882 C76,234.44496 75.2149191,231.254347 76.7850809,229.293041 C78.3552428,227.331736 80.9727115,228.118413 84.6374869,231.653073 C83.9557796,224.551024 85.4724586,221 89.1875239,221 C92.9025892,221 94.5270322,223.764347 94.060853,229.293041 C96.445232,224.574573 99.3384967,222.806445 102.740647,223.988656 C106.142798,225.170867 106.864018,228.449688 104.90431,233.825117 C106.257347,231.23 108.589041,229.932441 111.899393,229.932441 C115.209744,229.932441 115.209744,232.909921 111.899393,238.864882 L79.1403238,238.864882 Z" id="Combined-Shape-Copy" fill="#FFFFFF"></path>
            </g>
        </g>
    </g>
</svg>