<?xml version="1.0" encoding="UTF-8"?>
<svg width="33px" height="33px" viewBox="0 0 33 33" version="1.1" xmlns="http://www.w3.org/2000/svg" xmlns:xlink="http://www.w3.org/1999/xlink">
    <!-- Generator: Sketch 50 (54983) - http://www.bohemiancoding.com/sketch -->
    <title>Group 6</title>
    <desc>Created with Sketch.</desc>
    <defs></defs>
    <g id="SIGN-UP" stroke="none" stroke-width="1" fill="none" fill-rule="evenodd">
        <g id="Sign-Up-2---version-2" transform="translate(-509.000000, -454.000000)">
            <g id="Invoices" transform="translate(288.000000, 306.000000)">
                <g id="Group-8" transform="translate(32.000000, 100.000000)">
                    <g id="Icons" transform="translate(103.000000, 48.000000)">
                        <g id="Group-6" transform="translate(86.000000, 0.000000)">
                            <circle id="Oval-8-Copy-3" fill="#F1F2F5" cx="16.5" cy="16.5" r="16.5"></circle>
                            <g id="Group" transform="translate(9.428571, 11.000000)" fill="#B8BBBE">
                                <path d="M9.28581818,0 L0.928467531,0 C0.41806182,0 0,0.417833246 0,0.928467531 L0,9.28581818 C0,9.79622389 0.41806182,10.2142857 0.928467531,10.2142857 L9.28581818,10.2142857 C9.79645247,10.2142857 10.2142857,9.79622389 10.2142857,9.28581818 L10.2142857,0.928467531 C10.2142857,0.417833246 9.79645247,0 9.28581818,0" id="Fill-1"></path>
                                <path d="M14.0865275,1.6845381 L12.2738242,2.69353539 C11.9044176,2.8992337 11.3923736,3.18380544 11,3.4020518 L11,6.81243126 C11.3923736,7.03022948 11.9044176,7.31524937 12.2738242,7.52094768 L14.0865275,8.52994497 C14.5497363,8.78785211 14.9285714,8.58865189 14.9285714,8.08807451 L14.9285714,2.12640855 C14.9285714,1.62583117 14.5497363,1.42618281 14.0865275,1.6845381" id="Fill-2"></path>
                            </g>
                        </g>
                    </g>
                </g>
            </g>
        </g>
    </g>
</svg>