<?xml version="1.0" encoding="UTF-8"?>
<svg width="44px" height="30px" viewBox="0 0 44 30" version="1.1" xmlns="http://www.w3.org/2000/svg" xmlns:xlink="http://www.w3.org/1999/xlink">
    <!-- Generator: Sketch 50 (54983) - http://www.bohemiancoding.com/sketch -->
    <title>1J</title>
    <desc>Created with Sketch.</desc>
    <defs></defs>
    <g id="Page-1" stroke="none" stroke-width="1" fill="none" fill-rule="evenodd">
        <g id="FREE100icons" transform="translate(-12.000000, -1459.000000)" fill="#0176FF">
            <g id="J" transform="translate(12.000000, 1447.000000)">
                <path d="M22.398,31.68 C19.775,31.68 17.642,29.54 17.642,26.92 C17.642,24.3 19.775,22.17 22.398,22.17 C25.021,22.17 27.155,24.3 27.155,26.92 C27.155,29.54 25.021,31.68 22.398,31.68 Z M22.398,18.99 C18.026,18.99 14.47,22.55 14.47,26.92 C14.47,31.29 18.026,34.85 22.398,34.85 C26.77,34.85 30.326,31.29 30.326,26.92 C30.326,22.55 26.77,18.99 22.398,18.99 Z M22.776,38.56 C16.562,38.83 10.337,34.84 4.266,26.65 C6.291,23.93 13.066,15.8 21.806,15.56 C27.931,15.43 33.993,19.15 39.765,26.73 C37.893,29.53 31.442,38.17 22.776,38.56 Z M42.969,25.72 C36.346,16.67 29.193,12.15 21.702,12.39 C9.584,12.74 1.329,25.26 0.983,25.79 C0.629,26.34 0.646,27.05 1.023,27.58 C7.731,36.99 14.833,41.75 22.146,41.75 C22.404,41.75 22.663,41.74 22.921,41.73 C34.929,41.18 42.733,28.02 43.059,27.46 C43.376,26.91 43.341,26.23 42.969,25.72 Z" id="1J"></path>
            </g>
        </g>
    </g>
</svg>